<svg width="53" height="68" viewBox="0 0 53 68" fill="none" xmlns="http://www.w3.org/2000/svg">
<path d="M32.0267 39.7761H21.3707C18.6827 39.7761 16.5067 40.4481 14.8427 41.7921C13.1787 43.1361 12.3467 45.1521 12.3467 47.8401V48.4161C12.3467 51.1041 13.1787 53.1201 14.8427 54.4641C16.5067 55.8081 18.6827 56.4801 21.3707 56.4801H32.0267V39.7761ZM44.1227 20.3841V28.2561H52.9547V40.3521H44.1227V68.0001H20.1227C16.9227 68.0001 14.0747 67.5521 11.5787 66.6561C9.08273 65.7601 7.00273 64.5441 5.33873 63.0081C3.67473 61.4081 2.39473 59.5521 1.49873 57.4401C0.666732 55.2641 0.250732 52.9281 0.250732 50.4321V49.2801C0.250732 45.4401 1.30673 42.3681 3.41873 40.0641C5.59473 37.6961 8.31473 36.0641 11.5787 35.1681V33.4401C8.31473 32.5441 5.59473 30.9441 3.41873 28.6401C1.30673 26.3361 0.250732 23.2641 0.250732 19.424V18.2721C0.250732 15.7761 0.666732 13.472 1.49873 11.3601C2.39473 9.18405 3.67473 7.32805 5.33873 5.79205C7.00273 4.25605 9.08273 3.04005 11.5787 2.14405C14.0747 1.24805 16.9227 0.800049 20.1227 0.800049H30.5867V12.32H21.3707C18.6827 12.32 16.5067 12.9601 14.8427 14.2401C13.1787 15.4561 12.3467 17.3761 12.3467 20.0001V20.5761C12.3467 23.2641 13.1787 25.2161 14.8427 26.4321C16.5067 27.6481 18.6827 28.2561 21.3707 28.2561H32.0267V20.3841H44.1227Z" fill="#1D1D1D"/>
</svg>
